<?xml version="1.0" encoding="utf-8"?>
<!-- Generator: Adobe Illustrator 23.1.1, SVG Export Plug-In . SVG Version: 6.00 Build 0)  -->
<svg version="1.1" id="Layer_1" xmlns="http://www.w3.org/2000/svg" xmlns:xlink="http://www.w3.org/1999/xlink" x="0px" y="0px"
	 viewBox="0 0 1025 500" style="enable-background:new 0 0 1025 500;" xml:space="preserve">
<style type="text/css">
	.st0{fill:#4CB748;}
	.st1{font-family:'Staatliches-Regular';}
	.st2{font-size:121.5781px;}
	.st3{font-size:139.758px;}
	.st4{fill:none;}
	.st5{fill:#010101;}
	.st6{font-family:'Roboto-Thin';}
	.st7{font-size:16px;}
	.st8{clip-path:url(#SVGID_2_);}
	.st9{clip-path:url(#SVGID_4_);fill:#0A9146;}
	.st10{clip-path:url(#SVGID_4_);fill:#3EB449;}
	.st11{clip-path:url(#SVGID_4_);fill:#4FB648;}
	.st12{clip-path:url(#SVGID_4_);fill:#078543;}
	.st13{clip-path:url(#SVGID_4_);fill:#FFC64A;}
	.st14{clip-path:url(#SVGID_4_);fill:#11A54A;}
	.st15{clip-path:url(#SVGID_4_);fill:#279E48;}
	.st16{font-size:47.8448px;}
</style>
<circle id="Ellipse_11" class="st0" cx="281.6" cy="268.3" r="124.4"/>
<text transform="matrix(1 0 0 1 404.284 231.899)" class="st0 st1 st2">“</text>
<text transform="matrix(1 0 0 1 875.662 388.1329)" class="st0 st1 st3">”</text>
<rect x="459.4" y="191.9" class="st4" width="416.2" height="153.5"/>
<text transform="matrix(1 0 0 1 459.431 203.9398)"><tspan x="0" y="0" class="st5 st6 st7">The pineapple flavor of Fresh Juice is my favorite. You can </tspan><tspan x="0" y="19.2" class="st5 st6 st7">taste the freshness of the pineapple when you drink it. It </tspan><tspan x="0" y="38.4" class="st5 st6 st7">taste sweet and is low in sugar. There juice is my favorite for </tspan><tspan x="0" y="57.6" class="st5 st6 st7">when I need to feel energized or craving something sweet. </tspan><tspan x="0" y="76.8" class="st5 st6 st7">What else can you ask for?!</tspan></text>
<g>
	<g>
		<defs>
			
				<rect id="SVGID_1_" x="45.1" y="4.9" transform="matrix(0.8151 -0.5793 0.5793 0.8151 -27.5174 113.2573)" width="237.1" height="189.7"/>
		</defs>
		<clipPath id="SVGID_2_">
			<use xlink:href="#SVGID_1_"  style="overflow:visible;"/>
		</clipPath>
		<g class="st8">
			<defs>
				
					<rect id="SVGID_3_" x="45.1" y="4.9" transform="matrix(0.8151 -0.5793 0.5793 0.8151 -27.5174 113.2573)" width="237.1" height="189.7"/>
			</defs>
			<clipPath id="SVGID_4_">
				<use xlink:href="#SVGID_3_"  style="overflow:visible;"/>
			</clipPath>
			<path class="st9" d="M112.4,33.2c-1.5,1.1,0,3.9,8.2,27.4c4.6,13.4,6.1,18,11.2,21.5c4,2.7,5.8,1.6,12.6,5.4
				c7.9,4.5,11.2,9.2,12.5,8.3c1.3-0.9-2.1-5.7-3.7-14.8c-1.4-8,0.3-9.4-1-14.4c-1.4-5.2-4.6-8.3-15.2-16.8
				C121.8,37.8,114.2,31.8,112.4,33.2"/>
			<path class="st10" d="M158.5,14.3c1.9-0.1,2.7,4.1,10.3,25.4C174,54,175,56,174.5,60.5c-0.7,6.1-3,4.8-9,20.6
				c-5.3,13.9-4.7,17.8-4.4,19.1c0.1,0.6,0.7,2.7-0.1,3.2c-0.9,0.5-3.2-1.6-4.3-2.8c-1.2-1.4-3.5-4.3-5.1-11.3
				c-0.9-3.8-1.1-6.8-1.1-7.2c-1.6-22.2,1.1-41,1.1-41C153.8,26.1,155.5,14.5,158.5,14.3"/>
			<path class="st9" d="M193.8,39.3L189,73.9c-3.2,2.5-7.3,6.4-10.8,12.1c-5.2,8.3-6.9,16.8-7.6,22.3c-2.4-0.5-4.9-1-7.3-1.5
				c-1-1.4-2.5-4-3.3-7.3c-0.5-2.3-0.9-18.5,3.3-26.7c1.9-3.8,11.5-16.1,15.2-20.1C183.7,46.8,189.1,42.5,193.8,39.3"/>
			<path class="st11" d="M95.5,108l34.2,9.2c3.6-1.9,8.8-4.1,15.5-5.1c9.8-1.4,18.4,0.3,23.8,1.9c0.5-2.4,1-4.8,1.5-7.2
				c-1-1.4-2.8-3.8-5.6-5.8c-1.9-1.4-17-8.1-26.3-7.5c-4.3,0.3-19.6,4.1-24.8,5.8C106.4,101.9,100.3,105,95.5,108"/>
			<path class="st12" d="M202.8,52.1l-4.7,34.6c-3.2,2.5-7.3,6.4-10.8,12.1c-5.2,8.3-6.9,16.8-7.6,22.3c-2.4-0.5-4.9-1-7.3-1.5
				c-1-1.4-2.5-4-3.3-7.3c-0.5-2.3-0.9-18.5,3.3-26.7c1.9-3.7,11.5-16.1,15.2-20.1C192.8,59.5,198.1,55.3,202.8,52.1"/>
			<path class="st13" d="M171.9,152.1l7,1.2l1.4-9.5c-1.4,0.8-3.1,2-4.9,3.8C173.9,149.2,172.7,150.8,171.9,152.1"/>
			<polygon class="st13" points="184.4,140.9 181.6,152.8 194.5,155.1 197.1,142.5 			"/>
			<path class="st13" d="M189.1,137.5l9,2.1c0.8-2.3,1.5-4.5,2.3-6.8c-1.6,0.5-3.3,1.1-5.1,1.8C193,135.6,191,136.6,189.1,137.5"/>
			<polygon class="st13" points="201.9,140.3 215.4,143.4 217,135.9 203.2,132.9 			"/>
			<path class="st13" d="M206.2,131.3l11.2,2.7l0.4-2c-1.4-0.4-3.2-0.9-5.3-1.1C210,130.7,207.8,131,206.2,131.3"/>
			<polygon class="st13" points="200.9,143.2 198.4,156.7 212.1,159 214.7,146.2 			"/>
			<polygon class="st13" points="219.8,137.1 218.4,144.1 231,147.8 232.4,140.7 			"/>
			<polygon class="st13" points="181.5,157 195,158.8 192.7,172.8 178.9,170.7 			"/>
			<polygon class="st13" points="164.7,172.8 164.9,185.5 175.2,187.5 176.4,173.7 			"/>
			<path class="st13" d="M165,168.7l11.4,2.3l1.7-14.4l-10.2-1.4c-0.8,1.6-1.7,3.8-2.3,6.4C165,164.5,164.9,166.9,165,168.7"/>
			<path class="st13" d="M162.9,164.1l0,5l-1.8-0.4c0.2-0.7,0.4-1.4,0.7-2.2C162.1,165.6,162.5,164.8,162.9,164.1"/>
			<path class="st13" d="M161.2,171.4l1.9,0.1l-0.2,13.5l-3.2-0.8c-0.2-1.7-0.2-3.8,0-6.2C160.1,175.4,160.6,173.2,161.2,171.4"/>
			<path class="st13" d="M160.5,187.9l2,0.2l1.5,12.2c-1-1.6-2.4-4.1-3.1-7.5C160.5,191,160.4,189.3,160.5,187.9"/>
			<polygon class="st13" points="220.4,134.4 220.7,132.8 232.6,137.3 232.8,139 			"/>
			<polygon class="st13" points="236.1,140 243.3,143.2 243.4,142.2 235.7,138.6 			"/>
			<path class="st9" d="M118.7,143c15.2,3.4,30.5,6.9,45.7,10.3c3.2-4.6,9.3-12.3,19.6-18.3c8.2-4.8,15.8-6.8,20.9-7.7
				c1.8-16.5,3.6-33,5.5-49.5c-5.4,2.2-14.4,6.9-22,16.8c-8.5,11-11.1,23.1-12,29.5c-7.1-0.8-18.1-1.1-30.1,2.5
				C132.6,130.7,123.6,138.1,118.7,143"/>
			<path class="st14" d="M101.6,123.1l34.7,8.6c3.7-2,9.1-4.3,15.9-5.4c10-1.6,18.8-0.1,24.3,1.4c0.6-2.4,1.1-4.9,1.7-7.3
				c-0.9-1.4-2.7-3.8-5.6-5.7c-1.9-1.3-17.2-7.8-26.7-7c-4.4,0.4-20.1,4.6-25.4,6.4C112.9,116.6,106.6,120,101.6,123.1"/>
			<path class="st15" d="M78,71.5c-0.8,1.7,2.7,3.6,19.3,16.3c11.2,8.6,12.6,10,16.8,10.8c5.8,1,5.4-1.4,21.9-2.5
				c14.5-1,17.8,0.6,18.8,1.2c0.5,0.3,2.2,1.3,2.9,0.8c0.8-0.7-0.3-3.3-1-4.7c-0.8-1.5-2.6-4.3-8.3-7.7c-3.1-1.8-5.7-2.9-6.1-3
				c-19.5-7.5-37.5-10.1-37.5-10.1C90.3,70.4,79.3,68.8,78,71.5"/>
		</g>
	</g>
</g>
<image style="overflow:visible;" width="1125" height="932" xlink:href="../../pam.png"  transform="matrix(0.4724 0 0 0.4724 7.9565 88.4226)">
</image>
<text transform="matrix(1 0 0 1 291.5389 400.6781)" class="st5 st1 st16">Pam Diaz</text>
</svg>
